<?xml version="1.0" encoding="iso-8859-1"?>
<!-- Generator: Adobe Illustrator 19.0.0, SVG Export Plug-In . SVG Version: 6.00 Build 0)  -->
<svg version="1.1" id="Capa_1" xmlns="http://www.w3.org/2000/svg" xmlns:xlink="http://www.w3.org/1999/xlink" x="0px" y="0px"
	 viewBox="0 0 512 512" style="enable-background:new 0 0 512 512;" xml:space="preserve">
<rect x="90.667" y="327.467" style="fill:#ADB3BA;" width="330.667" height="46.933"/>
<rect x="370.133" style="fill:#CED6E0;" width="71.467" height="470.4"/>
<path style="fill:#ADB3BA;" d="M512,512c-28.8-32-66.133-51.2-106.667-51.2s-76.8,19.2-106.667,51.2H512z"/>
<rect x="70.4" style="fill:#CED6E0;" width="71.467" height="470.4"/>
<path style="fill:#ADB3BA;" d="M212.267,512c-28.8-32-66.133-51.2-106.667-51.2S28.8,480,0,512H212.267z"/>
<rect y="46.933" style="fill:#415A6B;" width="512" height="209.067"/>
<g>
	<polygon style="fill:#FFD15C;" points="422.4,46.933 341.333,256 424.533,256 505.6,46.933 	"/>
	<polygon style="fill:#FFD15C;" points="254.933,46.933 173.867,256 257.067,256 338.133,46.933 	"/>
	<polygon style="fill:#FFD15C;" points="87.467,46.933 6.4,256 89.6,256 170.667,46.933 	"/>
</g>
<g>
</g>
<g>
</g>
<g>
</g>
<g>
</g>
<g>
</g>
<g>
</g>
<g>
</g>
<g>
</g>
<g>
</g>
<g>
</g>
<g>
</g>
<g>
</g>
<g>
</g>
<g>
</g>
<g>
</g>
</svg>
