<svg xmlns="http://www.w3.org/2000/svg" xmlns:xlink="http://www.w3.org/1999/xlink" id="Capa_1" x="0" y="0" version="1.1" viewBox="0 0 512 512" xml:space="preserve" style="enable-background:new 0 0 512 512"><rect style="fill:#adb3ba" width="330.667" height="46.933" x="90.667" y="327.467"/><rect style="fill:#ced6e0" width="71.467" height="470.4" x="370.133"/><path style="fill:#adb3ba" d="M512,512c-28.8-32-66.133-51.2-106.667-51.2s-76.8,19.2-106.667,51.2H512z"/><rect style="fill:#ced6e0" width="71.467" height="470.4" x="70.4"/><path style="fill:#adb3ba" d="M212.267,512c-28.8-32-66.133-51.2-106.667-51.2S28.8,480,0,512H212.267z"/><rect style="fill:#415a6b" width="512" height="209.067" y="46.933"/><g><polygon style="fill:#ffd15c" points="422.4 46.933 341.333 256 424.533 256 505.6 46.933"/><polygon style="fill:#ffd15c" points="254.933 46.933 173.867 256 257.067 256 338.133 46.933"/><polygon style="fill:#ffd15c" points="87.467 46.933 6.4 256 89.6 256 170.667 46.933"/></g></svg>