<svg xmlns="http://www.w3.org/2000/svg" xmlns:xlink="http://www.w3.org/1999/xlink" id="Capa_1" x="0" y="0" version="1.1" viewBox="0 0 58 58" xml:space="preserve" style="enable-background:new 0 0 58 58"><rect style="fill:#ecf0f1" width="58" height="58"/><rect style="fill:#546a79" width="58" height="12"/><circle style="fill:#ed7161" cx="6" cy="6" r="3"/><circle style="fill:#f0c419" cx="15" cy="6" r="3"/><circle style="fill:#4fba6f" cx="24" cy="6" r="3"/><polygon style="fill:#8697cb" points="0 12 0 31 6 31 6 25 18 25 18 31 23 31 23 25 35 25 35 31 40 31 40 25 52 25 52 31 58 31 58 12"/><path style="fill:#bdc3c7" d="M17,44H7c-0.553,0-1-0.448-1-1s0.447-1,1-1h10c0.553,0,1,0.448,1,1S17.553,44,17,44z"/><path style="fill:#bdc3c7" d="M17,48H7c-0.553,0-1-0.448-1-1s0.447-1,1-1h10c0.553,0,1,0.448,1,1S17.553,48,17,48z"/><path style="fill:#bdc3c7" d="M17,52H7c-0.553,0-1-0.448-1-1s0.447-1,1-1h10c0.553,0,1,0.448,1,1S17.553,52,17,52z"/><path style="fill:#bdc3c7" d="M34,44H24c-0.553,0-1-0.448-1-1s0.447-1,1-1h10c0.553,0,1,0.448,1,1S34.553,44,34,44z"/><path style="fill:#bdc3c7" d="M34,48H24c-0.553,0-1-0.448-1-1s0.447-1,1-1h10c0.553,0,1,0.448,1,1S34.553,48,34,48z"/><path style="fill:#bdc3c7" d="M34,52H24c-0.553,0-1-0.448-1-1s0.447-1,1-1h10c0.553,0,1,0.448,1,1S34.553,52,34,52z"/><path style="fill:#bdc3c7" d="M51,44H41c-0.553,0-1-0.448-1-1s0.447-1,1-1h10c0.553,0,1,0.448,1,1S51.553,44,51,44z"/><path style="fill:#bdc3c7" d="M51,48H41c-0.553,0-1-0.448-1-1s0.447-1,1-1h10c0.553,0,1,0.448,1,1S51.553,48,51,48z"/><path style="fill:#bdc3c7" d="M51,52H41c-0.553,0-1-0.448-1-1s0.447-1,1-1h10c0.553,0,1,0.448,1,1S51.553,52,51,52z"/><rect style="fill:#67b9cc" width="12" height="12" x="6" y="25"/><rect style="fill:#67b9cc" width="12" height="12" x="40" y="25"/><rect style="fill:#67b9cc" width="12" height="12" x="23" y="25"/></svg>