<?xml version="1.0" encoding="iso-8859-1"?>
<!-- Generator: Adobe Illustrator 19.0.0, SVG Export Plug-In . SVG Version: 6.00 Build 0)  -->
<svg version="1.1" id="Capa_1" xmlns="http://www.w3.org/2000/svg" xmlns:xlink="http://www.w3.org/1999/xlink" x="0px" y="0px"
	 viewBox="0 0 58 58" style="enable-background:new 0 0 58 58;" xml:space="preserve">
<rect style="fill:#ECF0F1;" width="58" height="58"/>
<rect style="fill:#546A79;" width="58" height="12"/>
<circle style="fill:#ED7161;" cx="6" cy="6" r="3"/>
<circle style="fill:#F0C419;" cx="15" cy="6" r="3"/>
<circle style="fill:#4FBA6F;" cx="24" cy="6" r="3"/>
<g>
	<path style="fill:#BDC3C7;" d="M22,47h13c0.552,0,1-0.447,1-1s-0.448-1-1-1H22c-0.552,0-1,0.447-1,1S21.448,47,22,47z"/>
	<path style="fill:#BDC3C7;" d="M40,49H17c-0.552,0-1,0.447-1,1s0.448,1,1,1h23c0.552,0,1-0.447,1-1S40.552,49,40,49z"/>
</g>
<path style="fill:#48A0DC;" d="M40.529,26.598v-0.821c0-3.427-2.511-6.462-5.92-6.803c-2.319-0.232-4.431,0.76-5.771,2.404
	c-0.374,0.459-1.046,0.546-1.534,0.212c-0.924-0.632-2.041-1.003-3.245-1.003c-3.184,0-5.765,2.581-5.765,5.765
	c0,0.138,0.011,0.272,0.021,0.408c-2.164,0.899-3.624,3.179-3.258,5.726c0.383,2.665,2.796,4.572,5.489,4.572h12.161h2.471h2.269
	c2.915,0,5.447-2.244,5.551-5.157c0.064-1.793-0.756-3.395-2.057-4.412C40.669,27.279,40.529,26.941,40.529,26.598z"/>
<g>
</g>
<g>
</g>
<g>
</g>
<g>
</g>
<g>
</g>
<g>
</g>
<g>
</g>
<g>
</g>
<g>
</g>
<g>
</g>
<g>
</g>
<g>
</g>
<g>
</g>
<g>
</g>
<g>
</g>
</svg>
